<svg xmlns="http://www.w3.org/2000/svg" version="1.1" xmlns:xlink="http://www.w3.org/1999/xlink" viewBox="0 0 200 200"><rect width="200" height="200" fill="url('#gradient')"></rect><defs><linearGradient id="gradient" gradientTransform="rotate(45 0.5 0.5)"><stop offset="0%" stop-color="#b5d532"></stop><stop offset="100%" stop-color="#35b78c"></stop></linearGradient></defs><g><g fill="#cb2a39" transform="matrix(3.747864985766572,0,0,3.747864985766572,5.981917740077975,126.27425161887592)" stroke="#f0a10f" stroke-width="0.2"><path d="M12.95-14.22L12.95 0L9.54 0L4.50-8.85L4.50 0L1.07 0L1.07-14.22L4.50-14.22L9.53-5.37L9.53-14.22L12.95-14.22ZM20.08 0.20L20.08 0.20Q17.65 0.20 16.14-1.25Q14.64-2.71 14.64-5.03L14.64-5.03L14.64-5.30Q14.64-6.92 15.24-8.16Q15.84-9.40 16.99-10.08Q18.14-10.76 19.73-10.76L19.73-10.76Q21.95-10.76 23.24-9.38Q24.53-8.00 24.53-5.53L24.53-5.53L24.53-4.25L17.99-4.25Q18.16-3.36 18.76-2.85Q19.36-2.34 20.30-2.34L20.30-2.34Q21.87-2.34 22.74-3.44L22.74-3.44L24.25-1.66Q23.63-0.81 22.50-0.31Q21.38 0.20 20.08 0.20ZM19.71-8.22L19.71-8.22Q18.26-8.22 17.99-6.31L17.99-6.31L21.31-6.31L21.31-6.56Q21.33-7.35 20.91-7.79Q20.49-8.22 19.71-8.22ZM33.32-10.57L34.98-4.34L36.04-10.57L39.20-10.57L36.71 0L33.93 0L32.18-6.27L30.42 0L27.64 0L25.15-10.57L28.30-10.57L29.35-4.19L31.03-10.57L33.32-10.57ZM45.91-2.97L45.91-2.97Q45.91-3.39 45.47-3.64Q45.03-3.90 43.80-4.17Q42.57-4.44 41.77-4.89Q40.97-5.33 40.55-5.97Q40.13-6.60 40.13-7.42L40.13-7.42Q40.13-8.88 41.33-9.82Q42.53-10.76 44.47-10.76L44.47-10.76Q46.56-10.76 47.83-9.81Q49.10-8.87 49.10-7.32L49.10-7.32L45.80-7.32Q45.80-8.59 44.46-8.59L44.46-8.59Q43.95-8.59 43.59-8.31Q43.24-8.02 43.24-7.59L43.24-7.59Q43.24-7.15 43.67-6.88Q44.10-6.60 45.04-6.43Q45.99-6.25 46.70-6.01L46.70-6.01Q49.08-5.19 49.08-3.07L49.08-3.07Q49.08-1.62 47.80-0.71Q46.51 0.20 44.47 0.20L44.47 0.20Q43.12 0.20 42.05-0.29Q40.99-0.78 40.39-1.62Q39.79-2.46 39.79-3.39L39.79-3.39L42.87-3.39Q42.89-2.66 43.36-2.32Q43.83-1.98 44.56-1.98L44.56-1.98Q45.23-1.98 45.57-2.26Q45.91-2.53 45.91-2.97Z"></path></g></g></svg>
